<svg xmlns="http://www.w3.org/2000/svg" viewBox="0 0 397.93 426.15">
  <defs>
    <style>
      .cls-1{fill:#b1a554}.cls-2{fill:#f4f41a}.cls-3{fill:#f80202}.cls-4{fill:#b22e21}.cls-5{fill:#f8f8b0}
    </style>
  </defs>
  <g id="Layer_2" data-name="Layer 2">
    <g id="Layer_1-2" data-name="Layer 1">
      <g id="Layer_2-2" data-name="Layer 2">
        <g id="Layer_1-2-2" data-name="Layer 1-2">
          <g id="ZATLNP.tif">
            <path class="cls-1" d="M113 135.31v-5.52a23 23 0 015.45-15.53 22.45 22.45 0 0117.66-8.93 17.17 17.17 0 001.74-.2c2.71-.31 4.59-1 6.29-3.91a30.29 30.29 0 0114.2-12.94c3-1.33 6-.64 9-1 6.3-.75 10.8 2.77 15.21 6.41 1.8 1.47 2.12 1.35 3.46-.53 3.33-4.65 6.27-10 12.33-11.53a16.2 16.2 0 0111.61 1c5 2.56 7.79 6.79 9.18 12.1.88 3.38.93 3.3 4.09 1.84 5.79-2.67 11.93-4.2 18.24-3.11 5.73 1 11.28 3 15.39 7.42a26.2 26.2 0 016.59 12.37c1.53 6.58-.62 11.9-3.69 17.19a4.84 4.84 0 00-.09 4.71 22.44 22.44 0 011.64 7.13c1.54 17.05.14 34.09 1.17 51 .61 10.35-.08 20.73.94 31 1 10.1 0 20.22 1 30.23 1 9.78.09 19.55 1 29.24.72 7.84.67 15.65.88 23.48a16.87 16.87 0 01-1.41 6c-.56 1.66-2.53 2.31-4.26 2.48a181.76 181.76 0 01-21.64.72c-26-.66-51.93-.19-77.91-.25-4 0-8 .5-12 .25-3.24-.21-6.59-.22-9.71-1.56a6.76 6.76 0 01-4.28-6.63c-.09-10 0-20 0-30.07 0-4.57-.31-4.88-4.87-5.5-8.78-1.2-16.67-4.62-24.14-9.37-5.92-3.74-10.35-8.95-14.14-14.54a29.79 29.79 0 01-5.16-12.65c-.47-3.38-.57-6.71-.78-10-.49-7.51 1.76-14.31 5.58-20.62a48.43 48.43 0 0115-15.38c4.52-3 9.46-4.83 14.19-7.23 1.56-.79 3.38-.61 5-1 2.44-.54 4.84-1.54 7.51-1.43 3.58.17 4.73-1.07 4.76-4.54v-18c0-1.12.08-2.39-1.58-2.15-3.29.49-6-1.28-8.75-2.44-3-1.28-6.07-2.87-8.21-5.67-2.43-3.19-5.07-6.23-5.62-10.42 0-.28-.36-.52-.55-.78a.85.85 0 00-.32-1.14zm27 51.38l-2.71-2.36c-1.12-1-2.12-2.32-3.85-1.85-1.9.51-4 .61-5.72 1.27-5.42 2-11.06 3.39-16.17 6.41a64.53 64.53 0 00-12.68 10c-2 1.94-3.15 4.38-4.68 6.58-3.1 4.45-4.35 9.34-5.22 14.53-.57 3.42-.09 6.75-.05 10.13 0 3.77 1.32 7.21 2.59 10.46a31 31 0 006.4 10c1.5 1.6 3.23 3 4.65 4.59 2.27 2.62 5.23 4.22 8 6.08 4.06 2.69 8.64 4.23 13.21 5.74 2.23.74 4.54 1.27 6.78 2s3.87-.1 5.11-2c.4-.62 1-1.32 1.79-1.14s.42 1.12.56 1.71c.6 2.38.4 4.8.48 7.21.35 10-1.32 20.05-.51 30.1.19 2.31.44 4.87 2.73 6a12.88 12.88 0 005.79 1.31q54-.12 108 0a25.33 25.33 0 006.11-1 1.58 1.58 0 001.33-1.53c.55-3.93 1.54-7.86.57-11.85a37 37 0 01-.59-7.93c-.45-17.13.57-34.26-.77-51.42-.75-9.57-.85-19.26-1.19-28.9-.34-9.88-.13-19.75-.78-29.66s-1.27-19.91-1.16-29.9c0-4-.06-8-.08-12a4.48 4.48 0 00-.78-2.82 14 14 0 00-11.83-6c-29.25.05-58.5.08-87.75-.06-3.54 0-6.82 1.41-10.33 1.13a1.86 1.86 0 00-.91.36 9.88 9.88 0 00-5.21 9.22c.09 12.91-.52 25.78-1.1 38.66-.09 2.11 0 4.19 0 7zm121.7-70.08a30.49 30.49 0 01-.93-3.74 17 17 0 00-4.37-8.64 27.75 27.75 0 00-10.46-7.06 23.41 23.41 0 00-15.28-.55c-3.75 1.14-7.34 2.86-11 4.31-.63.25-1.64 1-1.67-.3 0-1.56-.84-2.83-1.09-4.27a15.17 15.17 0 00-9.29-12 12.45 12.45 0 00-9.24-.09 15.16 15.16 0 00-7.5 7 18.72 18.72 0 01-4.2 5.48c-1.36 1.13-2.21 1-3.71.29-3.18-1.58-5.21-4.73-8.76-5.83-3-.92-5.82-2.72-8.95-2a28.61 28.61 0 00-12.75 6.11c-2.72 2.36-5.13 5-6.36 8.37-.61 1.69.7 3.09 1.28 4.59a2 2 0 01-.7 2.24c-.63.5-1.25.22-1.8-.26s-1.3-.56-1.87-1.16c-1.3-1.4-2.66-2.37-4.93-1.44-1.94.8-4.23-.19-6.37.66a27.48 27.48 0 00-13.59 11.18c-3.43 5.4-3.66 11.36-2.09 16.91a21.64 21.64 0 0014.85 15.38c1.54.49 3.22.3 4.7 1.25s2.68.34 2.69-1.67c0-2.91-.22-5.86.54-8.69.67-2.49-.25-5.12 1-7.53 3-5.56 8-7.59 13.79-7.61 30.5-.13 61 0 91.49-.09a22.84 22.84 0 018.1 1.78 12.42 12.42 0 003.47 1.15c1.89.08.6-2.2 1.74-2.84.13-.07.19-.26.28-.4 2.05-3.17 2.16-6.88 3-10.49z"/>
            <path class="cls-2" d="M15.51 125.78l.12 3.72a2.62 2.62 0 00.11 2.81c2.64 5.05 6.9 8.15 12 10.28a13.54 13.54 0 0010.18.34c5.68-2.21 8.37-6.43 5.91-13.91a6.51 6.51 0 01.49-5.78 18.13 18.13 0 003-5.66c.25-1 .78-1.12 1.66-.63 1.8 1 3.68 1.84 5.44 2.9 1.58 1 3.17 5.49 2.54 7.05-1.51 3.8-2.43 7.81-4.69 11.35-3.34 5.23-4.91 11.44-9 16.3-1 1.23-5 3.21-6.23 2.75a57.57 57.57 0 01-5.45-2.22c-8.37-4.16-16.71-8.39-25.06-12.59-2.43-1.23-4.16-5.89-3.42-8.44 1.44-4.93 4.36-9.14 6.37-13.79a113.38 113.38 0 016-11.39c1.63-2.85 5.54-5.18 8.57-4.16a37.35 37.35 0 016.16 2.67 1.88 1.88 0 011.13 1.9c.12 2.37-1.78 3.82-2.54 5.8a5.27 5.27 0 01-3 2.77c-2 .94-4.16.6-6.15 1.57-2.21 1.04-4.28 3.81-4.14 6.36zM328.74 51.84l2.55-.12a27.41 27.41 0 017.82 6.28c.49.55.77 1.09.08 1.71-2.28 2-3.64 4.84-5.87 7-5.22 5-10.47 10-14.54 16-.82 1.21-.89 1.79.2 2.78 5.49 4.94 10.16 10.74 16.16 15.15 1.63 1.2 2.13 2.44.22 3.94a35.75 35.75 0 00-2.84 2.8c-1.31 1.27-2.5 3.31-4 3.57s-2.84-1.89-4-3.3c-.35-.42-1-.6-1.42-1a43 43 0 01-5.41-5.13 54 54 0 00-5.54-5.67c-3.84-3.67-7.68-7.31-11.18-11.32-.93-1.07-.81-1.76.06-2.75 6.64-7.54 13.46-14.92 20.35-22.23 2.44-2.55 5.27-4.78 7.36-7.71z"/>
            <path class="cls-3" d="M183.86 424.93a2.82 2.82 0 01-1.9 0V401.8c0-6.33-.08-12.66 0-19 0-1.85-.13-4.44 2.66-4.49 8.49-.15 17-.06 25.49 0 .63 0 1.31-.13 1.7.68a3.54 3.54 0 01-1.23 4.84 3.62 3.62 0 01-2 .49c-4.14.16-8.32-.58-12.42.57-1.06.3-2.19.6-2.23 2-.11 3.61-.81 7.42 3 9.82a4.88 4.88 0 01.89.87c3.15 3.39 2.66 5.77-1.56 7.51a3.9 3.9 0 01-1.21.25c-.82.06-1.06.51-1.19 1.29-.94 5.76.51 7.53 6.37 7.68h11.27c3.45.07 4.33 1.21 3.67 4.49a5.59 5.59 0 00-.24 1.72c.25 2.23-.76 2.84-2.9 2.82-7.74-.11-15.49 0-23.24-.08a7.13 7.13 0 00-4.93 1.67z"/>
            <path class="cls-4" d="M131.37 402.81c0-2.39-.22-4.73.65-7.13 1.15-3.16-1.78-7.66-5-8.32a1.31 1.31 0 00-1.55.93c-2.19 4.58-4.63 9.06-6.12 13.93-.92 3-2.45 3.86-5.37 2.56-3.71-1.66-7.46-3.25-11.16-4.92-1.39-.63-1.56-1.22-.87-3 1.73-4.46 4.17-8.64 5.42-13.29a24.18 24.18 0 012.07-4.21c1.8-3.67 3-7.58 4.91-11.21 2.21-4.18 4.06-8.55 5.86-12.92.91-2.23 2.54-2.41 4.21-1.69 4.8 2.08 9.39 4.64 14.25 6.55a154.27 154.27 0 0115.05 7 14.78 14.78 0 017.55 9.51c1.92 6.62-.53 12.74-6.61 16.07-1.73.95-3.87 1.19-5.84 1.66-.75.18-1.5.09-1.52 1.19q-.18 6.23-.41 12.46a5.53 5.53 0 002.32 4.68c1.11.92 2.71 1.8 2 3.61s-2.64 1.74-3.92 1.9c-7.78 1-12.75-3-15.82-9.92-.69-1.52-.1-3.61-.1-5.44zm27.84-23.11a4.21 4.21 0 00-1-3.28 23.91 23.91 0 00-8.85-8.1c-2.63-1.35-5.29-2.57-8-3.77-5.09-2.26-10.15-4.61-15.28-6.81-1.25-.53-2.82-.93-3.75.67a126.81 126.81 0 00-6.12 12.84c-2 4.62-3.75 9.38-5.9 13.94-1.61 3.41-3 6.91-4.39 10.4-.23.56-.46 1.3.14 1.59 2.73 1.35 4.92 3.61 8 4.46a1.54 1.54 0 002-.88c2.42-4.58 4.23-9.44 7.07-13.83 1.42-2.2 2.82-3.15 5.14-2.07.53.24 1.08.42 1.59.65 2.47 1.14 4.73 3.25 5.18 5.54a27.91 27.91 0 01-.11 10.66 11.25 11.25 0 007.86 12.86c1.13.33 1.57.15 1.48-1-.34-4.86.69-9.78-.83-14.63-.53-1.67-.2-3.64-.12-5.46a1.86 1.86 0 011.73-2 2.17 2.17 0 01.36 0 14.21 14.21 0 005.57-1.08c4.53-1.4 8.23-6.2 8.23-10.7z"/>
            <path class="cls-1" d="M15.51 125.78c-.14-2.55 1.93-5.29 4.11-6.36 2-1 4.18-.63 6.15-1.57a5.27 5.27 0 003-2.77c.76-2 2.66-3.43 2.54-5.8a1.88 1.88 0 00-1.13-1.9 37.87 37.87 0 00-6.09-2.67c-3-1-6.94 1.31-8.57 4.16a113.38 113.38 0 00-6 11.39c-2 4.65-4.93 8.86-6.37 13.79-.74 2.55 1 7.21 3.42 8.44 8.35 4.2 16.69 8.43 25.06 12.59a57.57 57.57 0 005.45 2.22c1.25.46 5.2-1.52 6.23-2.75 4.06-4.86 5.63-11.07 9-16.3 2.26-3.54 3.18-7.55 4.69-11.35.63-1.56-1-6.1-2.54-7.05C52.7 118.79 50.82 118 49 117c-.88-.49-1.41-.36-1.66.63a18.13 18.13 0 01-3 5.66 6.51 6.51 0 00-.49 5.78c2.46 7.48-.23 11.7-5.91 13.91a13.54 13.54 0 01-10.18-.34c-5.15-2.13-9.41-5.23-12-10.28a2.62 2.62 0 01-.11-2.81c2-.22 2.92 1.38 3.82 2.69 2.56 3.74 5.34 6.69 10.3 7.54a20.05 20.05 0 007.87-.14c3.12-.65 5.88-4.69 4.47-7.52-.7-1.41-.72-3-1.64-4.33a3 3 0 01.11-3.51c1.94-2.34 2.63-5.24 3.94-7.86a29.17 29.17 0 011.94-2.85.68.68 0 01.89-.35l.11.06c3.83 1.82 8.12 2.91 10.78 6.63a9.61 9.61 0 01.6 11.19c-2.6 4.47-4.48 9.29-6.83 13.87-1.59 3.13-3.2 6.46-4.88 9.5-1.41 2.52-3.89 5.27-8 5.44-4.45.18-7.9-1.78-11.56-3.53-5.57-2.73-11.04-5.74-16.65-8.38-3.48-1.66-6.74-3.42-9.12-6.37-2.54-3.15-2-7-.75-10.35 1.81-4.62 4.64-8.82 6.53-13.41 1.2-2.93 2.72-5.71 4.08-8.52 2-4.19 5.55-7.57 10.6-7.63 3 0 6 1.32 8.68 2.84a5.17 5.17 0 01.56.49c4.4 3.38 4.38 3.37 1.74 8.07-.64 1.15-1.18 2.36-1.73 3.55-1.19 2.63-2.64 4.69-6.11 4.13-2.32-.37-4 1.18-5.75 2.53-1.28.97-2.18 2.61-4.14 2.45zM201.55 52.31h-12.24c-4.38.07-8.19-1.21-10.66-5A10.7 10.7 0 01177 41.6V16.12a50.45 50.45 0 011.21-8.82c.53-2.95 3.33-4.92 6.24-6.16 4.46-1.89 9.15-.84 13.73-.92 6-.12 12.12-.32 18.12.92 3.61.75 9 6 8.66 9.68a79.39 79.39 0 000 8.45c0 1.47-.42 2.12-2 2.09-3.74-.08-7.5-.12-11.24 0-2 .07-2.63-1.46-3.58-2.65-1.14-1.44-2-3.32-3.4-4.3-3.37-2.28-8.93-.22-10.48 3.7a52.16 52.16 0 00-2.21 7c-.91 3.76 2.47 11.45 5.8 13.56 1.66 1.06 6.34.78 7.41-.91 2.52-4 6.53-3.8 10.31-4 2.36-.13 4.77.54 7.19.43.82 0 1.61.23 1.57 1.2-.18 4.64.84 9.5-2.47 13.58a8.35 8.35 0 01-6.56 3.37c-4.58.06-9.16 0-13.74 0zM180.21 28.7c0 5.38-.25 9.31.08 13.2.26 3 .73 6.24 4.63 7.27A43.75 43.75 0 00196.29 51c5.33 0 10.66-.11 16 0 4.61.12 7.57-1.93 9.36-6.12 2.1-4.93.52-7.55-4.75-7.55h-1.25a8.61 8.61 0 00-6.56 2.23c-1.89 1.54-3.92 3.41-6.56 3.74-5 .63-12.16-5.65-12.32-10.72-.08-2.79-.57-5.55-.08-8.4C191 19 193 14.74 198 12.44c3.45-1.59 8.11-.33 10.71 2.54 1.15 1.28 1.65 3.6 3.33 3.81 2.79.36 5.55 1 8.37 1.14 1.26.09 1.82-.36 1.79-1.69-.06-2.49.06-5 0-7.49s-2.92-5.33-5.39-5.38-5.15-.82-7.61-.83c-7.94 0-15.93-1.18-23.82.75-2.56.62-3.89 1.93-4.11 4.5-.65 6.79-1.63 13.54-1.06 18.91zM152 59.88c-6.15-.12-9.61-2.58-12.86-5.61-2.69-2.51-4.22-6.07-7.68-7.93-2.21-1.19-3.78-.23-5.5.71-.52.29-.34.84-.15 1.34 1.55 3.9 2.91 7.88 4.68 11.67.75 1.6.93 3.31 1.69 4.9s-.79 2.43-1.91 2.62c-2.44.43-4.38 1.83-6.48 2.88s-4.57 1.27-6.78 2.18c-1.38.58-2.17-.68-2.79-1.85-2.4-4.55-3.92-9.48-5.78-14.23s-4.27-9.1-5.36-14.1c-.56-2.5-2.26-4.73-3.17-7.18A48.8 48.8 0 0096.5 27c-.53-.89.18-1.42.87-1.75a77.41 77.41 0 0111.16-4.68 37.31 37.31 0 005.68-2.21 128 128 0 0113.37-5.41c6.88-2.44 13.78-1.59 18.88 4.07a12.61 12.61 0 013.1 11.13c-.48 2.61-1.75 4.77-2.71 7a3.14 3.14 0 001 4.06c2.62 1.8 4 4.61 6.15 6.75 1.64 1.62 3.25 1.71 5.14 1.66 1.61 0 3.27-.17 4 1.66a4.47 4.47 0 01-1.14 5.31c-3.3 2.87-6.69 5.54-10 5.29zm-17.41-45c-3.62 0-11.26 2.23-15.46 4.44a18.89 18.89 0 01-3.11 1.49 85.1 85.1 0 00-14.23 5.46c-2 1-1.8 2.14-1.15 3.59 2.5 5.62 4.47 11.46 6.87 17.1 1.85 4.34 3.48 8.79 5.27 13.16.94 2.28 2.51 4.43 2.5 7.11 0 1.06.93 1.12 1.8 1.31 1.79.4 3.09-1.12 4.77-1 2.08.11 3.77-1 5.53-1.84 1.2-.57 1.36-1.27 1-2.6-1.24-4.08-3.11-7.9-4.63-11.86-.83-2.15-1.42-4.75.2-6.61s4.27-2.17 6.38-1.9c3.83.44 6.32 3.41 8.49 6.28 2.34 3.11 4.39 5.88 8.72 6.88 4.07.94 7.23-.49 10.64-1.73a1.44 1.44 0 001-1.56c-.11-.69-.61-.94-1.22-1.07-2.93-.63-4.61-3.1-6.76-4.79-3.38-2.66-6.26-5.92-9.52-8.74-1.25-1.07-.8-1.62.1-2.27a16.67 16.67 0 003.84-4.48 8.93 8.93 0 000-10.43c-2.56-3.82-6.2-6.36-10.99-5.94z"/>
            <path class="cls-4" d="M183.79 425a7.11 7.11 0 015-1.7c7.75.08 15.5 0 23.24.08 2.14 0 3.15-.59 2.9-2.82a5.59 5.59 0 01.24-1.72c.66-3.28-.22-4.42-3.67-4.49-3-.07-6 0-9 0h-2.25c-5.86-.15-7.31-1.92-6.37-7.68.13-.78.37-1.23 1.19-1.29a3.9 3.9 0 001.21-.25c4.22-1.74 4.71-4.12 1.56-7.51a4.88 4.88 0 00-.89-.87c-3.84-2.4-3.14-6.21-3-9.82 0-1.37 1.17-1.67 2.23-2 4.1-1.15 8.28-.41 12.42-.57a3.53 3.53 0 003.7-3.35 3.62 3.62 0 00-.49-2c-.39-.81-1.07-.68-1.7-.68-8.5 0-17-.11-25.49 0-2.79.05-2.62 2.64-2.66 4.49-.13 6.33 0 12.66 0 19v23.13c-.74.07-1.49.11-2.22.2-1.6.22-1.9-.57-1.93-2-.33-15.31 1.48-30.57 1.25-45.87 0-2.08.72-2.61 2.86-2.43 7.81.66 15.64.26 23.46.24 3.2 0 6.26.74 9.4 1 .88.08 1.08.58 1.08 1.34 0 2.66-.06 5.33 0 8 0 1.59-1 1.67-2.15 1.66-4.66 0-9.33.12-14 0-2.13-.07-3.19.43-2.81 2.72a4.57 4.57 0 010 .74c0 4.15-.35 3.62 3.62 3.54 1.83 0 2.52.43 2.41 2.36-.16 2.9-.1 5.83 0 8.74 0 1.48-.37 2.19-2 2a12.64 12.64 0 00-2.75 0c-.8.09-2.08-.54-2.22.85a2.79 2.79 0 001.9 2.9 3.89 3.89 0 001.48.14c5.66 0 11.31-.1 16.91.95 1.11.21 1.61.44 1.59 1.64-.05 3.58-.06 7.16 0 10.74 0 1.27-.38 1.77-1.7 1.76-8.49-.06-17 0-25.47-.13-2.32-.04-4.54-1.04-6.88-1.04z"/>
            <path class="cls-1" d="M81.39 77.51c.86 0 1.29-.77 1.74-1.3 2.21-2.6 5.07-4.42 7.63-6.6.72-.62 1.38-.8 2.12 0 3.29 3.63 6.61 7.24 9.91 10.86.86.94.4 1.72-.39 2.34-4.44 3.48-8 7.92-12.26 11.57-5.63 4.82-10.75 10.21-16.62 14.76-.81.62-1.43.75-2.16 0a99.41 99.41 0 01-10.15-11.07 1.19 1.19 0 01-.08-1.68 1.13 1.13 0 01.27-.22c2.86-2.36 5.28-5.18 7.89-7.8.79-.8.93-1.33.08-2.23-3.1-3.24-5.87-6.78-9-10-1.74-1.78-3.27-1.68-4.64-.13-2 2.22-4.63 3.49-6.66 5.56-1.16 1.18-2.22 1.42-3.49-.06-2.35-2.74-5.23-5-7.13-8.15-.48-.8-.66-1 .22-2 3-3.47 6.77-6 9.77-9.38 4.54-5.11 10.18-9 15-13.84 1.26-1.25 3-2.22 4.34-3.52s2.22.09 3 .9c2.34 2.56 4.55 5.24 6.89 7.79.89 1 .93 1.43-.12 2.36-2.84 2.5-5.51 5.18-8.27 7.78-.51.48-.53.79-.07 1.42a100 100 0 0011 11.9 1.47 1.47 0 001.18.74zm-.43 3a2.25 2.25 0 01-1.82-.75 105.4 105.4 0 01-12.38-13.9 2.34 2.34 0 01.09-3.31 47.06 47.06 0 017.08-7.1c.59-.5.7-1 .31-1.46-1.45-1.87-2.94-3.69-4.45-5.51a1.06 1.06 0 00-1.44-.38.92.92 0 00-.28.24c-4.41 4.26-9.47 7.78-13.81 12.14-3.78 3.8-7.67 7.5-11.59 11.14-1 .93-.72 1.52 0 2.26 1.51 1.55 3.06 3.06 4.55 4.63.71.76 1.3.89 2 0 2-2.48 4.74-4.11 6.91-6.4 1.4-1.47 2.69-1.79 4.46.06A180.08 180.08 0 0173.78 87c.83 1.08.42 1.56-.28 2.25-2.49 2.45-4.94 5-7.47 7.36-1 .92-1.19 1.61-.1 2.63 1.95 1.81 3.86 3.67 5.65 5.64 1.16 1.27 2.14 1 3.15 0C78.82 100.71 83.29 97 87.57 93c3.66-3.36 7-7 11-10 1.08-.81 1.52-2 .23-2.89a14.53 14.53 0 01-3.4-3.89c-2-2.87-4.59-3.33-6.56-1.38-1.12 1.11-2.19 2.29-3.36 3.35A9 9 0 0181 80.54z"/>
            <path class="cls-4" d="M274.79 357.2c2.44-.86 2.65 1.61 3 2.81a54.73 54.73 0 004 9.67c.62 1.23-.31 2.84.94 4 .25.24-.46.47-.81.66-4.34 2.41-9.38 3.2-13.63 5.86-.8.5-1.05.33-.53 1.39a135.17 135.17 0 015.71 13.68c1.53 4.24 4.16 8.11 4.6 12.78.18 1.89-.82 2.53-2.13 3-3.43 1.38-6.9 2.66-10.35 4-1 .4-1.4-.09-1.87-1-1.94-3.6-3-7.56-4.65-11.29s-3-7.86-4.74-11.69c-.67-1.44-.36-3.79-1.79-4.32-1.08-.4-2.75 1.06-4.23 1.44a43.39 43.39 0 00-9.59 3.51c-1.18.62-1.26.26-1.85-.81-2.57-4.68-3.73-9.92-6-14.68-1-2.08.28-2.76 1.49-2.88 3.48-.34 6.18-2.54 9.4-3.48 4.75-1.38 9-4 13.7-5.67 5.51-1.94 10.93-4.13 16.31-6.41a12.89 12.89 0 013.02-.57zm3.27 13.72c-.37-3.3-2-6.12-3.17-9.11-.19-.48-.58-1-1.11-.76-1.23.58-2.57.28-3.85.84-4.48 2-9.07 3.69-13.6 5.54-1.44.59-2.79 1.41-4.25 1.92a140.28 140.28 0 00-16.73 6.93c-.88.44-1 .57-.62 1.57 1.06 2.79 2.83 5.2 4 7.91a1.68 1.68 0 002.09 1.13h.09c3.89-1 7.91-1.5 11.64-3.07.85-.36 1.16-.2 1.72.62 2.62 3.84 4.06 8.21 5.91 12.4 1.49 3.36 1.9 7.11 4 10.24 2.69 4 2.64 4 7.11 2.3 3-1.14 3.15-1.48 2.28-4.59-2.1-7.46-6.17-14.18-8.07-21.73-.53-2.14-.47-3.88 1.41-5 2.93-1.74 5.59-4 9.11-4.68a2.38 2.38 0 002-2.43zM39.21 345.39c2.13.05 3.29-1.06 4.66-1.79 4-2.15 8.21-3.85 12.29-5.84 3.23-1.58 6.61-3.06 10-4.49 4.54-1.94 8.79-4.59 13.35-6.48 2.65-1.1 5.34-2.21 8.06-3.18.85-.31 1.26.34 1.68.75 3.35 3.25 6.65 6.55 10 9.81.76.74.7 1.39.42 2.42-.72 2.66-2.35 4.84-3.43 7.31-2.64 6-5.6 11.9-8.54 17.79-2.65 5.3-4.79 10.83-7.82 15.95-.81 1.36-.68 3.21-1.82 4.51-.61.69-1.06 1.39-2.1.28-2.33-2.47-4.83-4.77-7.27-7.14a1.86 1.86 0 01-.4-2.6l.08-.1c1.8-3.17 3.27-6.51 4.85-9.79a1.24 1.24 0 00-.43-1.54q-3.72-3.67-7.38-7.4a1.18 1.18 0 00-1.65-.27l-.11.09c-2.89 2.29-6.55 3.18-9.54 5.29-1 .67-1.79.36-2.56-.61a30.65 30.65 0 00-4.72-4.67c-2.66-2.11-4.32-5-6.83-7.1a5.93 5.93 0 01-.79-1.2zm56.05-8c-.11-1.44.17-2.46-.65-3.3-2.28-2.31-4.48-4.69-7.35-6.33a2.14 2.14 0 00-1.9-.28c-3.38 1.49-7 2.65-10 4.71s-6.56 3.45-9.82 4.93c-6 2.7-11.8 5.7-17.72 8.5a2 2 0 00-1.14 1.55c-.37 2.44 3.91 7.71 6.21 7.08s4.5-.67 6.7-1.37 4.72-2.33 7.15-1.28c3.34 1.43 5.36 4.67 8.12 6.92.34.28.24 1.09.34 1.65.64 3.64-1 6.77-2.25 10-1 2.67.31 6.09 2.91 7.06.67.24 1 0 1.34-.63 2.65-5.53 5.47-11 8-16.57 2.32-5.14 5.13-10 7.21-15.29 1-2.56 2.73-4.87 2.87-7.28zM332.13 374.79c-1-1.07-2.57-1.11-3.24-2.45a5.58 5.58 0 00-3.09-3c-1.27-.45-1.07-1.9-2-2.65-4.49-3.55-8.07-8-12-12.12-1.36-1.4-2.24-1.36-3.62 0-2.93 2.91-6.05 5.62-9.08 8.43a1.4 1.4 0 01-2 .3 1.45 1.45 0 01-.22-.21l-11.05-10.5c-1.15-1.09-1-2 .1-3.11 5.25-5.1 10.36-10.34 15.58-15.46 5.49-5.39 11.06-10.71 16.36-16.28 1.15-1.21 1.81-1.37 3-.08 3.55 3.71 7.22 7.31 10.89 10.9.94.92 1 1.4-.06 2.42-3.26 3.07-6.28 6.39-9.51 9.5-1.17 1.12-.9 1.73.1 2.72q9.66 9.53 19.22 19.16c1 1 1.79 1.38.15 3.18s-3.75 3.32-5.19 5.44c-.99 1.55-2.8 2.53-4.34 3.81zm-.17-5.3c2.67-.32 4-2.5 5.39-4.34 1-1.37-.74-2.66-1.3-4-.19-.43-.68-.72-1-1.07-4.18-4.19-8.29-8.43-12.55-12.53-1.52-1.47-2.35-3.37-3.62-5-1.11-1.41-.84-2.91.65-4.37a79.12 79.12 0 006.41-6.28 3.44 3.44 0 00.23-4.68 14 14 0 00-1.73-1.8c-4.29-4.3-4.64-4.37-9.08-.52-8.62 7.48-16.22 16-24.39 23.94-1.37 1.32-1.22 2.79 0 4.18a31.77 31.77 0 013.39 3.93c1.25 2 3.84 2.15 5.77.67 2.23-1.7 4.16-3.81 6.48-5.33 1.53-1 3-3.58 5.45-1.19 2.8 2.81 5.62 5.6 8.43 8.4 3.06 3 6.12 6.09 9.15 9.16a3 3 0 002.32.8zM65.43 288.46c0 5.77-3.91 10.65-8.71 12.91a10.34 10.34 0 01-4.43 1.09c-2.38 0-4.41 2-4.74 4.85-.4 3.55-2.9 5.49-5.19 7.53a14.62 14.62 0 01-8 3.39c-3.74.44-7-1.05-9.93-3.4-1.08-.89-2-2-3-3-2.63-2.54-2.64-6.21-3.94-9.31-2.37-5.67-3.42-11.8-5.75-17.52-.85-2.08-.23-4.55-1.17-6.77-.38-.9 1-1.45 1.79-1.73 4.46-1.55 9.16-2.32 13.55-4.14 4.86-2 10.14-2.68 15-4.79 3.67-1.59 7.73-2.29 11.66-3.2a23.35 23.35 0 003.7-1.25c2.67-1.17 2.9.91 3 2.18.43 3.91 2.34 7.31 3.57 10.91.57 1.66.55 3.35 1.07 5 .78 2.33 1.79 4.72 1.52 7.25zm-32.22 24.85h4.53c1.87 0 5.2-2.05 5.34-3.75.21-2.55 2.16-4.22 2.71-6.55s2.58-3.11 4.76-3.75c3.6-1.06 7.64-1.43 9.8-5.29 1.5-2.68 2.6-5.48 1.55-8.47-.71-2-1.07-4.09-1.59-6.12-1.14-4.38-2.48-8.63-5.11-12.38-.55-.8-1-.51-1.65-.27-3.36 1.23-6.66 2.86-10.14 3.45-5.35.91-10.11 3.53-15.45 4.52-3.75.69-7.17 3-11.08 3.71-1.28.23-2.26 1.8-2 2.52.82 2.25.34 4.65 1.08 6.81 1.71 4.91 3.26 9.87 4.69 14.86a25.21 25.21 0 003.84 7.86c2.31 3.12 5.79 3.17 8.72 2.85zM365.9 318.34c-3.41 1-6.76-1-10-2.18s-6.64-1.46-9.83-2.7a44 44 0 00-9.29-2.92 11.2 11.2 0 01-6.26-3.05 8.64 8.64 0 01-2.32-9.32c.87-2.7.25-5.53 1.63-8.14a35.46 35.46 0 002.68-7.76 63.31 63.31 0 012.22-7.66 12.89 12.89 0 016.47-6.81 6.16 6.16 0 014.87-.28c7.36 2.62 15.06 4 22.48 6.5 3.69 1.24 7.62 1.8 11 4a9.4 9.4 0 014.22 10.06c-1.54 5.83-3.11 11.67-5 17.4-.75 2.3-1.17 4.8-2.31 6.87-2.18 3.88-3.97 6.85-10.56 5.99zm-20.37-46.88c-5 0-6 .4-7.25 3.52s-2.2 6.54-3.56 9.7a52.89 52.89 0 00-2.7 10.17c-.52 2.41-2.11 4.78-.72 7.68s3.81 3.8 6.36 5a58.71 58.71 0 0012.08 3.75 42.56 42.56 0 017.17 2.41c2.61 1.1 5.34.56 7.95 1.58a6.26 6.26 0 007.28-2.27 33.85 33.85 0 004.49-11.58c.58-3.5 2.06-6.68 2.81-10.07s1.49-6.9-2-10-7.61-3.19-11.39-4.77a62.08 62.08 0 00-9.78-2.92c-3.58-.89-7.06-2.6-10.74-2.2z"/>
            <path class="cls-1" d="M328.74 51.84c-2.09 2.93-4.92 5.17-7.36 7.76-6.89 7.31-13.71 14.69-20.35 22.23-.87 1-1 1.68-.06 2.75 3.5 4 7.34 7.65 11.18 11.32a54 54 0 015.54 5.67 43 43 0 005.41 5.13c.43.39 1.07.57 1.42 1 1.16 1.41 2.36 3.59 4 3.3s2.69-2.3 4-3.57a35.75 35.75 0 012.84-2.8c1.91-1.5 1.41-2.74-.22-3.94-6-4.41-10.67-10.21-16.16-15.15-1.09-1-1-1.57-.2-2.78 4.07-6.06 9.32-11 14.54-16 2.23-2.13 3.59-4.93 5.87-7 .69-.62.41-1.16-.08-1.71a27.41 27.41 0 00-7.82-6.31 6.19 6.19 0 00-1.29-2.38c-.34-.35-1.11-.73-.66-1.42s1.06-.31 1.62-.33a2.88 2.88 0 012.06.66A100.52 100.52 0 01343 58c1 1 .52 1.62-.22 2.49-6.25 7.45-13.22 14.21-20.11 21-1.38 1.37-1.4 2.13 0 3.49 5.61 5.43 11 11 16.66 16.47 1.48 1.42 1.28 2.21-.07 3.48q-4.62 4.36-9 9c-1.37 1.47-2.16 1.6-3.7.08q-5.67-5.61-11.39-11.13c-6.16-5.92-12.76-11.42-18.35-18-1-1.14-.88-1.74 0-2.9 4.79-6.5 11.16-11.5 16.52-17.45 3.26-3.63 6.66-7.13 9.74-10.91a4.74 4.74 0 015.66-1.78zM266 12.59c4-.58 6.86 2.5 10.38 3.33 4.4 1 8 3.77 12.41 5a15.5 15.5 0 018.84 7.23c1.24 2.06 1 5 .14 7.29-2.19 5.77-4.87 11.37-7.2 17.09-1.87 4.59-3.55 9.27-6 13.55-2.71 4.73-8.09 6-13.17 3.84-4.63-2-9.3-4.08-14-5.69a47.49 47.49 0 01-9.81-4.68 8.06 8.06 0 01-3.63-5.83c-.82-6.29 2.11-11.57 4.5-17 2-4.62 3.53-9.46 5.57-14.07 1.73-3.92 3.8-7.72 8.06-9.64 1.27-.67 2.6-.18 3.91-.42zm9 55c2.39-.14 4.45.5 5.84-1.39 1.95-2.66 3.95-5.44 4.79-8.55 1.16-4.33 3.39-8.15 5-12.27 1.75-4.6 4.12-9 4.22-14.06.05-2.25-1.06-3.76-2.71-5.23-2.5-2.22-5.73-2.74-8.6-4.06a119 119 0 00-15-6c-3.87-1.19-8.91.57-10 4.25-.79 2.64-2.23 4.9-3.25 7.38-2.35 5.72-4.71 11.43-7 17.16-.64 1.59-1.88 2.91-2 4.73-.21 3.71 3.28 8.41 7.16 9.93 4.7 1.84 9.3 3.94 14 5.78 2.53 1 5 2.9 7.55 2.29zM377.32 107.62c2.23-.12 4.79-.65 6.31 1.32 2.1 2.74 4.69 5.3 5.35 8.93a7 7 0 001.14 2.46 98.41 98.41 0 016.52 13.23c3.11 7.45.55 12.46-6.83 16.12-4.93 2.45-10.07 4.49-14.91 7.08-3.73 2-7.72 3.2-11.45 5-5.11 2.53-10.9-.37-13.13-4.72s-4.51-8.8-6.53-13.33c-1.62-3.63-3.14-7.3-4.67-11-1-2.39.28-4.52 1-6.68 1.24-3.76 4.64-5 7.75-6.58q6.45-3.2 13-6.24c4-1.86 8.09-3.56 12-5.57 1.2-.53 2.95-.02 4.45-.02zm-.5 2.9c-2.86-.3-5.35.81-7.79 2-3.27 1.54-6.45 3.25-9.67 4.87-1.47.73-2.94 1.48-4.45 2.12-4.35 1.83-8.77 3.52-11.84 7.39a6 6 0 00-1 6.1c1 2.43 2 4.85 3.17 7.19 2.35 4.88 4.4 9.92 7.17 14.61a9.6 9.6 0 004.29 4.28c1.19.52 2.38 1.66 3.86 1.13 4.08-1.46 7.77-3.79 11.87-5.29 3.74-1.37 7.11-3.68 10.8-5.2 1.75-.72 3.3-1.77 5.09-2.45 4.64-1.74 7-5.42 6.28-9.5a31.94 31.94 0 00-2.53-7.12c-2.11-4.68-4.34-9.32-6.63-13.92-1.74-3.62-3.76-6.99-8.62-6.21z"/>
            <path class="cls-5" d="M113.21 135.46a.85.85 0 01.33 1c-.54-.13-1-.36-.33-1z"/>
            <path class="cls-2" d="M140.21 186.73c0-2.78-.08-4.86 0-6.93.58-12.88 1.19-25.75 1.1-38.66a9.88 9.88 0 015.21-9.22 1.86 1.86 0 01.91-.36c3.51.28 6.79-1.15 10.33-1.13 29.25.14 58.5.11 87.75.06a14 14 0 0111.83 6 4.48 4.48 0 01.78 2.82c0 4 .13 8 .08 12-.11 10 .5 20 1.16 29.9s.44 19.78.78 29.66c.34 9.64.44 19.33 1.19 28.9 1.34 17.16.32 34.29.77 51.42a37 37 0 00.59 7.93c1 4 0 7.92-.57 11.85a1.58 1.58 0 01-1.33 1.53 25.33 25.33 0 01-6.11 1q-54-.08-108 0a12.94 12.94 0 01-5.74-1.31c-2.29-1.12-2.54-3.68-2.73-6-.81-10.05.86-20.06.51-30.1-.08-2.41.12-4.83-.48-7.21-.14-.59.3-1.52-.56-1.71s-1.39.52-1.79 1.14c-1.24 1.91-3 2.73-5.11 2s-4.55-1.3-6.78-2c-4.57-1.51-9.15-3.05-13.21-5.74-2.8-1.86-5.76-3.46-8-6.08-1.42-1.63-3.15-3-4.65-4.59a31 31 0 01-6.4-10c-1.27-3.25-2.55-6.69-2.59-10.46 0-3.38-.52-6.71 0-10.13.87-5.19 2.12-10.08 5.22-14.53 1.53-2.2 2.73-4.64 4.68-6.58a64.53 64.53 0 0112.68-10c5.11-3 10.75-4.38 16.17-6.41 1.77-.66 3.82-.76 5.72-1.27 1.73-.47 2.73.89 3.85 1.85zm58.12 104.58h27.49a6.48 6.48 0 006.38-6.58v-.07c-.09-3.11-2.94-6.67-6.36-6.47-6.06.35-12.16 0-18.24.13-1.8 0-2.56-.48-2.46-2.39a62.94 62.94 0 000-8.24 2.6 2.6 0 012.08-3h.1c2.38-.61 4.63-1.61 7-2.19 6.08-1.49 11.23-4.86 15.69-8.78a50.86 50.86 0 0012.63-17.07c3.08-6.65 3.66-13.57 4.41-20.51a30 30 0 00-.76-12.36c-.85-2.69-3.63-5.59-6.29-5.24s-6.22 3.06-6.09 6.22c.18 4.3-.27 8.63-.51 13a25.69 25.69 0 01-.63 6.18c-1.42 4.45-2.64 9.06-5.68 12.77-1.57 1.91-2.52 4.28-4.67 5.76a99.28 99.28 0 01-8.37 5.61 25.05 25.05 0 01-10.45 3.25 47.81 47.81 0 01-14.52-.72 35.4 35.4 0 01-10.86-5 30.54 30.54 0 01-12.38-15.28c-1.36-3.49-2.65-7-2.64-10.91 0-5.28.79-10.62-.86-15.86a7.14 7.14 0 00-5.37-4.92c-1.88-.52-5.46 1.38-6 3.63a53.28 53.28 0 00-1.51 11c-.16 4.92 1.13 9.76 1.67 14.63.6 5.39 2.91 10 5.57 14.29 3.5 5.62 7.67 11 13.51 14.54 3.22 2 6.37 4.37 9.9 5.41 2.77.83 5.46 2.22 8.48 2.42a2.75 2.75 0 012.76 2.74 3.37 3.37 0 010 .44 78.29 78.29 0 000 8.25c.08 1.83-.54 2.47-2.42 2.45-6.33-.1-12.66 0-19-.08a4.43 4.43 0 00-4.18 2.16c-1.47 2.3-2.19 4.82-.91 7.46s3.87 3.41 6.62 3.42c8.88-.09 17.88-.09 26.87-.09zm-20.65-116h6.75c.85 0 2 .07 1.55 1.25s-.87 2.94-3.14 2.78c-3.65-.25-7.33 0-11-.09-1.66 0-2.21.57-2.11 2.2.22 3.24.38 6.49.39 9.73 0 1.64.56 2.17 2.18 2.14 3.91-.09 7.83 0 11.75 0 .76 0 1.83-.32 2 .9a1.86 1.86 0 01-1.37 1.89c-1.55.55-3 1.3-4.79 1.2-2.49-.15-5 .06-7.5-.07-1.81-.1-2.31.6-2.23 2.31a71.17 71.17 0 010 8c-.16 2.22.57 2.9 2.79 2.8 3.87-.16 7.77-.35 11.55.93 1 .33 1.68.74 1.64 1.84s-1 1.21-1.83 1.13c-4.36-.41-8.55 1.4-12.9 1-2.35-.21-2.54 1.07-1.92 2.76a8.38 8.38 0 01.73 3.12c-.11 5.12 2.82 9.16 5.58 12.87a26.16 26.16 0 0012.2 8.76c6.45 2.4 12.65 2.8 19.16.52a25.77 25.77 0 009.72-5.48c2.13-2.08 4.4-4.12 5.82-7.14 1.7-3.62 3.82-6.89 3.49-11.09a3.33 3.33 0 01.38-1.41c1-2.46.7-3.06-2-3.31a8.4 8.4 0 00-3 .06c-3.31.9-6.41-.56-9.61-.68a1.59 1.59 0 01-1.62-1.31 1.27 1.27 0 011.09-1.43c2.12 0 3.86-1.42 6-1.24 2.4.21 4.83 0 7.25.07 1.38 0 1.95-.5 1.9-1.91-.07-2.34 0-4.67 0-7 0-4.53.63-4.09-4.14-4.13-3.74 0-7.5.35-11.14-.89-.59-.19-1.15-.3-1.11-1.07a1 1 0 01.95-1c2.26-.42 4.4-1.32 6.81-1.08 2.23.21 4.5 0 6.75 0 1.15 0 1.9-.25 1.93-1.64.07-3.41.19-6.82.38-10.23.1-1.66-.59-2.2-2.18-2.17-3.59.06-7.17 0-10.75.05a6.7 6.7 0 01-3.26-1 1.07 1.07 0 01-.69-1.19.89.89 0 01.9-.73c2.47-.08 4.71-1.45 7.31-1.13 2.3.29 4.66 0 7 .08 1.3 0 2-.5 1.69-1.76-.55-2.4-.4-5.06-1.19-7.23-2.63-7.25-6.77-13.51-14-17.06-1.17-.57-1.93-1.92-3.39-1.94-2.73-.05-5.32-1-8-1.3a26.25 26.25 0 00-13.35 1.68 28.7 28.7 0 00-13 10.93c-2.89 4.4-3.82 9.32-4.74 14.3-.31 1.63.26 2.5 2.11 2.39 2.04-.04 4.13.01 6.21.02zm-43.47 77.26c2.18-.37 4.8.75 4.92-2.25.21-5.21 1.39-10.31 1.15-15.59-.32-7.07-.15-14.15 0-21.23 0-3.13.5-6.23 0-9.38-.41-2.67-1.2-3.62-3.85-3.64a26.75 26.75 0 00-10.87 2.6c-6.87 3-12.52 7.65-15.58 15.06a21.27 21.27 0 00-.19 16.21c2.16 5.91 6.25 10.13 11.38 13.56a31.86 31.86 0 0013.04 4.66z"/>
            <path class="cls-5" d="M261.68 116.65c-.84 3.61-1 7.32-3 10.5-.09.14-.15.33-.28.4-1.14.64.15 2.92-1.74 2.84a12.42 12.42 0 01-3.47-1.15 22.84 22.84 0 00-8.1-1.78c-30.5.05-61 0-91.49.09-5.78 0-10.82 2-13.79 7.61-1.28 2.41-.36 5-1 7.53-.76 2.83-.52 5.78-.54 8.69 0 2-1.08 2.71-2.69 1.67s-3.16-.76-4.7-1.25a21.63 21.63 0 01-14.83-15.34c-1.57-5.55-1.34-11.51 2.09-16.91a27.48 27.48 0 0113.59-11.18c2.14-.85 4.43.14 6.37-.66 2.27-.93 3.63 0 4.93 1.44.57.6 1.32.68 1.87 1.16s1.17.76 1.8.26a2 2 0 00.7-2.24c-.58-1.5-1.89-2.9-1.28-4.59 1.23-3.42 3.64-6 6.36-8.37a28.6 28.6 0 0112.73-6.15c3.13-.7 6 1.1 8.95 2 3.55 1.1 5.58 4.25 8.76 5.83 1.5.75 2.35.84 3.71-.29a18.72 18.72 0 004.2-5.48 15.16 15.16 0 017.5-7 12.45 12.45 0 019.24.09c5.22 2.22 8.29 6.35 9.29 12 .25 1.44 1.06 2.71 1.09 4.27 0 1.3 1 .55 1.67.3 3.66-1.45 7.25-3.17 11-4.31a23.41 23.41 0 0115.28.55 27.75 27.75 0 0110.46 7.06 17 17 0 014.37 8.64 29.3 29.3 0 00.95 3.77z"/>
            <path class="cls-3" d="M159.21 379.7c0 4.5-3.7 9.26-8.23 10.7a14 14 0 01-5.57 1.06 1.87 1.87 0 00-2.12 1.58 1.45 1.45 0 000 .36c-.08 1.82-.41 3.79.12 5.46 1.52 4.85.49 9.77.83 14.63.09 1.18-.35 1.36-1.48 1a11.25 11.25 0 01-7.86-12.86A27.91 27.91 0 00135 391c-.45-2.29-2.71-4.4-5.18-5.54-.51-.23-1.06-.41-1.59-.65-2.32-1.08-3.72-.13-5.14 2.07-2.84 4.39-4.65 9.25-7.07 13.83a1.55 1.55 0 01-2 .92c-3-.85-5.23-3.11-8-4.46-.6-.29-.37-1-.14-1.59 1.41-3.49 2.78-7 4.39-10.4 2.15-4.56 3.87-9.32 5.9-13.94a127.75 127.75 0 016.17-12.74c.93-1.6 2.5-1.2 3.75-.67 5.13 2.2 10.19 4.55 15.28 6.81 2.7 1.2 5.36 2.42 8 3.77a23.89 23.89 0 018.85 8.09 4.2 4.2 0 01.99 3.2zm-31-4.24c-.3 2 .78 3 2.48 4.18 2.2 1.58 4.71 2.27 7 3.35 4.42 2.06 7.95 2.65 10.76-1.38 1.48-2.12 1.54-6.15-.42-7.72a34.2 34.2 0 00-14.62-6.43c-.62-.13-1.6-.31-1.88.29-1.17 2.52-3.53 4.5-3.32 7.71z"/>
            <path class="cls-2" d="M180.21 28.69c-.57-5.37.41-12.12 1-18.9.22-2.57 1.55-3.88 4.11-4.5 7.89-1.93 15.88-.77 23.82-.75 2.46 0 5 .77 7.61.83s5.3 3 5.39 5.38 0 5 0 7.49c0 1.33-.53 1.78-1.79 1.69-2.82-.18-5.58-.78-8.37-1.14-1.68-.21-2.18-2.53-3.33-3.81-2.6-2.87-7.26-4.13-10.71-2.54-5 2.3-7 6.57-7.86 11.72-.49 2.85 0 5.61.08 8.4.16 5.07 7.34 11.35 12.32 10.72 2.64-.33 4.67-2.2 6.56-3.74a8.61 8.61 0 016.56-2.23h1.25c5.27 0 6.85 2.62 4.75 7.55-1.79 4.19-4.75 6.24-9.36 6.12-5.33-.13-10.66 0-16 0a43.75 43.75 0 01-11.37-1.81c-3.9-1-4.37-4.23-4.63-7.27-.24-3.9-.03-7.83-.03-13.21zM134.63 14.88c4.79-.43 8.43 2.11 11 5.94a8.93 8.93 0 010 10.43 16.67 16.67 0 01-3.84 4.48c-.9.65-1.35 1.2-.1 2.27 3.26 2.82 6.14 6.08 9.52 8.74 2.15 1.69 3.83 4.16 6.76 4.79.61.13 1.11.38 1.22 1.07a1.44 1.44 0 01-1 1.56c-3.41 1.24-6.57 2.67-10.64 1.73-4.33-1-6.38-3.77-8.72-6.88-2.17-2.87-4.66-5.84-8.49-6.28-2.15-.24-4.86.14-6.38 1.87s-1 4.46-.2 6.61c1.52 4 3.39 7.78 4.63 11.86.41 1.33.25 2-.95 2.6-1.76.85-3.45 2-5.53 1.84-1.68-.09-3 1.43-4.77 1-.87-.19-1.8-.25-1.8-1.31 0-2.68-1.56-4.83-2.5-7.11-1.79-4.37-3.42-8.82-5.27-13.16-2.4-5.64-4.37-11.48-6.87-17.1-.65-1.45-.82-2.58 1.15-3.59a85.1 85.1 0 0114.23-5.46 19.34 19.34 0 003.13-1.46c4.16-2.21 11.79-4.44 15.42-4.44zm-13.63 23a7.2 7.2 0 001.28-.3c3.71-1.49 7.69-2.22 11-4.87 2.38-1.93 3.26-4.34 1.84-8-.56-1.43-4-2.87-5.89-2.09-2.48 1-5.31 1-7.58 2.74a9.5 9.5 0 01-4.44 2c-2.63.26-2.19 1.95-1.88 3.39a9.64 9.64 0 001.09 3.2c1 1.67 1.85 3.89 4.58 3.94zM80.68 80.54a9.1 9.1 0 004.52-2.3c1.17-1.06 2.24-2.24 3.36-3.35 2-2 4.51-1.49 6.56 1.38a14.53 14.53 0 003.4 3.89c1.29.88.85 2.08-.23 2.89-4 3-7.35 6.67-11 10-4.29 3.95-8.75 7.67-12.84 11.83-1 1-2 1.25-3.15 0-1.79-2-3.7-3.83-5.65-5.64-1.09-1-.87-1.71.1-2.63 2.53-2.41 5-4.91 7.47-7.36.7-.69 1.11-1.17.28-2.25a180.08 180.08 0 00-13.19-14.82c-1.77-1.85-3.06-1.53-4.46-.06-2.17 2.29-4.94 3.92-6.91 6.4-.7.87-1.29.74-2 0-1.49-1.57-3-3.08-4.55-4.63-.71-.74-1-1.33 0-2.26C46.31 68 50.21 64.28 54 60.46c4.34-4.36 9.4-7.88 13.81-12.14a1.06 1.06 0 011.48-.15 1.37 1.37 0 01.24.29C71 50.28 72.51 52.1 74 54c.39.5.28 1-.31 1.46a47.06 47.06 0 00-7.08 7.1 2.34 2.34 0 00-.09 3.31 105.66 105.66 0 0012.34 13.9 2.24 2.24 0 001.82.77z"/>
            <path class="cls-3" d="M278.06 370.92a2.38 2.38 0 01-2 2.43c-3.52.66-6.18 2.94-9.11 4.68-1.88 1.12-1.94 2.86-1.41 5 1.9 7.55 6 14.27 8.07 21.73.87 3.11.71 3.45-2.28 4.59-4.47 1.72-4.42 1.68-7.11-2.3-2.11-3.13-2.52-6.88-4-10.24-1.85-4.19-3.29-8.56-5.91-12.4-.56-.82-.87-1-1.72-.62-3.73 1.57-7.75 2.08-11.64 3.07a1.68 1.68 0 01-2.15-1v-.09c-1.19-2.71-3-5.12-4-7.91-.38-1-.26-1.13.62-1.57a140.28 140.28 0 0116.73-6.93c1.46-.51 2.81-1.33 4.25-1.92 4.53-1.85 9.12-3.57 13.6-5.54 1.28-.56 2.62-.26 3.85-.84.53-.24.92.28 1.11.76 1.11 2.98 2.73 5.8 3.1 9.1zM95.28 337.46c-.14 2.44-1.82 4.75-2.84 7.33-2.08 5.25-4.89 10.15-7.21 15.29-2.52 5.59-5.34 11-8 16.57-.33.68-.67.87-1.34.63a5.63 5.63 0 01-2.89-7.06c1.23-3.21 2.89-6.34 2.25-10-.1-.56 0-1.37-.34-1.65-2.76-2.25-4.78-5.49-8.12-6.92-2.43-1-4.85.54-7.15 1.28s-4.48.76-6.7 1.37-6.58-4.64-6.21-7.08a2 2 0 011.14-1.55c5.92-2.8 11.75-5.8 17.72-8.5 3.26-1.48 6.73-2.81 9.82-4.93s6.6-3.22 10-4.71a2.14 2.14 0 011.9.28c2.87 1.64 5.07 4 7.35 6.33.79.86.55 1.86.62 3.32zM83 342.36a14.38 14.38 0 00-7.7 2.74c-1.13.78-2.68 2.23-1.4 4a18.5 18.5 0 004 4c1.34 1 2.7 1.51 3.83-.92s1.67-4.76 2.6-7.1c.72-1.75.51-3.24-1.33-2.75zM332.05 369.46a3 3 0 01-2.33-.77c-3-3.07-6.09-6.11-9.15-9.16-2.81-2.8-5.63-5.59-8.43-8.4-2.4-2.39-3.92.19-5.45 1.19-2.32 1.52-4.25 3.63-6.48 5.33-1.93 1.48-4.52 1.3-5.77-.67a31.77 31.77 0 00-3.39-3.93c-1.24-1.39-1.39-2.86 0-4.18 8.16-7.91 15.75-16.41 24.37-23.91 4.44-3.85 4.79-3.78 9.08.52a14 14 0 011.73 1.8A3.44 3.44 0 01326 332a79.12 79.12 0 01-6.41 6.28c-1.49 1.46-1.76 3-.65 4.37 1.27 1.61 2.1 3.51 3.62 5 4.26 4.1 8.37 8.34 12.55 12.53.35.35.84.64 1 1.07.56 1.3 2.31 2.59 1.3 4-1.32 1.75-2.69 3.92-5.36 4.21zM33.21 313.46c-3 .33-6.43.28-8.72-2.87a25.21 25.21 0 01-3.84-7.86q-2.14-7.5-4.69-14.86c-.74-2.16-.26-4.56-1.08-6.81-.26-.72.72-2.29 2-2.52 3.91-.67 7.33-3 11.08-3.71 5.34-1 10.1-3.61 15.45-4.52 3.48-.59 6.78-2.22 10.14-3.45.67-.24 1.1-.53 1.65.27 2.63 3.76 4 8 5.11 12.39.52 2 .88 4.11 1.59 6.12 1.05 3 0 5.79-1.55 8.47-2.16 3.86-6.2 4.23-9.8 5.29-2.18.64-4.18 1.33-4.76 3.75s-2.5 4-2.71 6.55c-.14 1.7-3.47 3.72-5.34 3.75zm21.36-24.15c3.71-4.28 3.94-4.56 0-8.26-1.27-1.18-2.86-.71-4.29-.65-4.47.17-7.24 3.06-7.08 7 .08 2.09 2 2.75 2.89 4.14 2 3 6 2.28 7.13-1.12a2 2 0 001.37-1.11zm-16 9.1c.82-4.37-2.55-7.43-3.25-11.3-.13-.72-1.11-.51-1.76-.61-3.33-.56-6.12.87-8.88 2.39a2.76 2.76 0 00-1.38 1.7c-1.08 3.86 1.65 11.59 5 13.93a6.53 6.53 0 006.84.51c2.35-1.3 4.4-3.45 3.45-6.67zM345.53 271.46c3.67-.39 7.16 1.32 10.79 2.16a62.08 62.08 0 019.78 2.92c3.78 1.58 8 1.72 11.39 4.77s2.73 6.48 2 10-2.23 6.57-2.81 10.07a33.85 33.85 0 01-4.49 11.62 6.26 6.26 0 01-7.28 2.27c-2.61-1-5.34-.48-8-1.58a42.56 42.56 0 00-7.17-2.41 57.85 57.85 0 01-12.13-3.78c-2.55-1.17-5-2.08-6.36-5s.2-5.27.72-7.68c.74-3.4 1.29-6.9 2.7-10.17s2.26-6.51 3.56-9.7 2.32-3.49 7.3-3.49zm16.68 34c6.85.11 8.72-4.85 6.84-9.52-1.76-4.36-5.83-4.47-9.32-5.36s-7.05-1.87-10.59-2.72c-2.43-.58-4.84-2.32-7.65-.3C338.17 290 337 295 340 297.69a25.92 25.92 0 006.5 3.88c2.08 1 4.3.73 6.39 1.56a44.82 44.82 0 009.32 2.33z"/>
            <path class="cls-2" d="M275 67.55c-2.58.61-5-1.27-7.66-2.3-4.7-1.84-9.3-3.94-14-5.78-3.88-1.52-7.37-6.22-7.16-9.93.11-1.82 1.35-3.14 2-4.73 2.32-5.73 4.68-11.44 7-17.16 1-2.48 2.46-4.74 3.25-7.38 1.11-3.68 6.15-5.44 10-4.25a119 119 0 0115 6c2.87 1.32 6.1 1.84 8.6 4.06 1.65 1.47 2.76 3 2.71 5.23-.1 5.09-2.47 9.46-4.22 14.06-1.57 4.12-3.8 7.94-5 12.27-.84 3.11-2.84 5.89-4.79 8.55-1.3 1.86-3.36 1.27-5.73 1.36zm-16.85-18.83a6.66 6.66 0 004.85 6.12c2.42.49 5.78-1.34 6.9-3.91 2.41-5.55 4.88-11.07 7-16.73.54-1.44 1.62-2.94 1.21-4.68-.44-1.93-3.6-4.76-5.49-5-2.33-.28-5.69 1.51-6.63 3.69-2.26 5.21-4.52 10.42-6.63 15.69a11.07 11.07 0 00-1.21 4.82zM376.82 110.52c4.86-.78 6.88 2.59 8.66 6.17 2.29 4.6 4.52 9.24 6.63 13.92a31.94 31.94 0 012.53 7.12c.76 4.08-1.64 7.76-6.28 9.5-1.79.68-3.34 1.73-5.09 2.45-3.69 1.52-7.06 3.83-10.8 5.2-4.1 1.5-7.79 3.83-11.87 5.29-1.48.53-2.67-.61-3.86-1.13a9.6 9.6 0 01-4.29-4.28c-2.77-4.69-4.82-9.73-7.17-14.61a107.31 107.31 0 01-3.17-7.19 6 6 0 011-6.1c3.07-3.87 7.49-5.56 11.84-7.39 1.51-.64 3-1.39 4.45-2.12 3.22-1.62 6.4-3.33 9.67-4.87 2.4-1.15 4.93-2.26 7.75-1.96zm-1 11a4.47 4.47 0 00-1.45.21 116.21 116.21 0 00-19 9 5.81 5.81 0 00-1.88 8c.12.19.25.37.39.55 2.3 2.66 4.79 2.45 8 1.42 6.09-1.93 11.62-4.9 17.12-8 3-1.69 3.72-4.34 2.65-8-.54-2-2.65-3.24-5.79-3.24z"/>
            <path class="cls-4" d="M198.33 291.31h-27c-2.75 0-5.29-.68-6.62-3.42s-.56-5.16.91-7.46a4.43 4.43 0 014.18-2.16c6.33.11 12.66 0 19 .08 1.88 0 2.5-.62 2.42-2.45-.11-2.75-.14-5.51 0-8.25a2.76 2.76 0 00-2.29-3.15 3.25 3.25 0 00-.44 0c-3-.2-5.71-1.59-8.48-2.42-3.53-1-6.68-3.44-9.9-5.41-5.84-3.58-10-8.92-13.51-14.54-2.66-4.28-5-8.9-5.57-14.29-.54-4.87-1.83-9.71-1.67-14.63a53.28 53.28 0 011.51-11c.55-2.25 4.13-4.15 6-3.63a7.14 7.14 0 015.37 4.92c1.65 5.24.88 10.58.86 15.86 0 3.94 1.28 7.42 2.64 10.91a30.51 30.51 0 0012.47 15.23 35.4 35.4 0 0010.86 5 47.81 47.81 0 0014.52.72A25.05 25.05 0 00214 248c3-1.66 5.6-3.71 8.37-5.61 2.15-1.48 3.1-3.85 4.67-5.76 3-3.71 4.26-8.32 5.68-12.77a25.69 25.69 0 00.63-6.18c.24-4.32.69-8.65.51-12.95-.13-3.16 3.43-5.88 6.09-6.22s5.44 2.55 6.29 5.24a30 30 0 01.76 12.35c-.75 6.94-1.33 13.86-4.41 20.51A50.86 50.86 0 01230 253.68c-4.46 3.92-9.61 7.29-15.69 8.78-2.34.58-4.59 1.58-7 2.19a2.61 2.61 0 00-2.2 3v.09a62.94 62.94 0 010 8.24c-.1 1.91.66 2.42 2.46 2.39 6.08-.08 12.18.22 18.24-.13 3.42-.2 6.27 3.36 6.36 6.47a6.49 6.49 0 01-6.31 6.65h-.07zm-.7-3h25.74a5.87 5.87 0 004.07-1.52c1-.9 1.41-4.37.65-4.35-1.66.05-2.92-1.1-4.52-1.18-6-.27-12.06.57-18.1-.84a3.63 3.63 0 01-3.2-3c-.93-4-.27-8.08 0-12.11.1-1.52 1.34-2.45 2.72-2.95 3-1.07 6-2.06 9-3.09a37.79 37.79 0 0013.7-8c1.55-1.43 2.64-3.31 4.36-4.46 2.8-1.89 4.17-4.93 5.91-7.52 2.87-4.25 4.26-9.31 5.16-14.38a62 62 0 001.1-14.07c-.13-2.55.15-5-1.88-7.18-1.38-1.48-2.2-1.91-3.76-.47-2.09 1.93-2 4.71-2.27 7.12-.5 4.82.37 9.77-1.16 14.5-.9 2.79-.93 5.86-2.6 8.38-3.39 5.14-6.54 10.37-11.86 14.06-4.62 3.2-9.48 6.18-14.85 6.75-5.8.62-11.82 1-17.76-.57a38.48 38.48 0 01-17-9.93 35.34 35.34 0 01-8.74-14c-1.91-5.54-3.48-11.12-3.15-17.08.13-2.24 0-4.5 0-6.75a3.18 3.18 0 00-.53-2.12 2.8 2.8 0 00-3.31-1.12 3.49 3.49 0 00-2.16 3.56c0 5.41.16 10.83-.05 16.24-.16 4.07 1.17 7.89 2.49 11.42a45.65 45.65 0 0010.64 16 23.32 23.32 0 005.27 4.38c3.2 1.69 6 4.15 9.8 4.8 2.63.45 4.92 2.07 7.63 2.59 4.19.81 5.21 2.4 5.21 6.7 0 2.42-.16 4.85 0 7.25s-1.17 3.79-2.93 4.76a9.27 9.27 0 01-4.77 1.19c-4.49-.13-9 .05-13.49-.09a8.65 8.65 0 00-4.42 1.35c-1.16.62-2.21 2.12-1 3.55a5.49 5.49 0 004.47 2.22c8.59-.14 17.09-.04 25.59-.04z"/>
            <path class="cls-4" d="M177.68 175.34c-2.08 0-4.17-.09-6.25 0-1.85.11-2.42-.76-2.11-2.39.92-5 1.85-9.9 4.74-14.3a28.7 28.7 0 0113-10.93 26.25 26.25 0 0113.35-1.72c2.69.34 5.28 1.25 8 1.3 1.46 0 2.22 1.37 3.39 1.94 7.26 3.55 11.4 9.81 14 17.06.79 2.17.64 4.83 1.19 7.23a1.4 1.4 0 01-1.48 1.77c-2.4-.09-4.83.21-7.21-.09-2.6-.32-4.84 1-7.31 1.13a.89.89 0 00-.9.73 1.07 1.07 0 00.69 1.19 6.7 6.7 0 003.26 1c3.58-.09 7.16 0 10.75-.05 1.59 0 2.28.51 2.18 2.17-.19 3.41-.31 6.82-.38 10.23 0 1.39-.78 1.65-1.93 1.64-2.25 0-4.52.16-6.75 0-2.41-.24-4.55.66-6.81 1.08a1 1 0 00-.95 1c0 .77.52.88 1.11 1.07 3.64 1.24 7.4.85 11.14.89 4.77 0 4.1-.4 4.14 4.13v7c.05 1.41-.52 1.94-1.9 1.91-2.42-.06-4.85.14-7.25-.07-2.18-.18-3.92 1.28-6 1.24a1.28 1.28 0 00-1.13 1.4 1.59 1.59 0 001.62 1.31c3.2.12 6.3 1.58 9.61.68a8.4 8.4 0 013-.06c2.7.25 3 .85 2 3.31a3.33 3.33 0 00-.38 1.41c.33 4.2-1.79 7.47-3.49 11.09-1.42 3-3.69 5.06-5.82 7.14a25.77 25.77 0 01-9.72 5.48c-6.51 2.28-12.71 1.88-19.16-.52a26.16 26.16 0 01-12.2-8.76c-2.76-3.71-5.69-7.75-5.58-12.87a8.38 8.38 0 00-.73-3.12c-.62-1.69-.43-3 1.92-2.76 4.35.4 8.54-1.41 12.9-1 .83.08 1.78.08 1.83-1.13s-.64-1.51-1.64-1.84c-3.78-1.28-7.68-1.09-11.55-.93-2.22.1-2.95-.58-2.79-2.8a71.17 71.17 0 000-8c-.08-1.71.42-2.41 2.23-2.31 2.5.13 5-.08 7.5.07 1.77.1 3.24-.65 4.79-1.2a1.86 1.86 0 001.37-1.89c-.16-1.22-1.23-.9-2-.9-3.92 0-7.84-.08-11.75 0-1.62 0-2.18-.5-2.18-2.14 0-3.24-.17-6.49-.39-9.73-.1-1.63.45-2.24 2.11-2.2 3.66.09 7.34-.16 11 .09 2.27.16 2.62-1.45 3.14-2.78s-.7-1.24-1.55-1.25zm20.28 67c1.84-.22 3.14-.41 4.41-.6 3.22-.5 5.8-2.36 8.48-3.74a25 25 0 007.85-6.42c2.59-3.1 3.24-6.72 4.51-10.21.75-2.05-.09-3.05-2.38-3.08a64.37 64.37 0 00-7.48.05c-2.72.3-3.93-1.09-4.78-3.27-1-2.51.22-6.65 2.11-6.61 3.11.08 5.89-1.6 9-1.18 2 .27 3.39-.5 3.65-2.74s-.4-3.43-2.75-3.84a15.48 15.48 0 00-4.45-.34c-2.1.28-3.87-.69-5.67-1.37a2.83 2.83 0 01-2.12-2.21c-.55-3.81 1.58-6.43 5.36-6.43h4.49c4.64 0 5.56-1.07 5.15-5.65-.11-1.22-.57-1.81-1.81-1.86-2.9-.13-5.8-.56-8.68-.41-2.57.14-3.66-1.3-4.38-3.22a5.43 5.43 0 012.13-6c2.17-1.44 4.54-.49 6.79-.8 2-.28 4.65-.47 5.18-2.49a8.31 8.31 0 00-1-6.4 41.87 41.87 0 00-7.51-8.59c-6.35-5.47-13.56-8.06-21.79-5.29-6.08 2.06-11.72 5-15.24 10.85-1.77 3-3.21 6-2.66 9.53.09.58.12 1.39.82 1.29 2.41-.34 4.49 1.27 6.81 1.07a6.12 6.12 0 015.59 2.61c.77 1 2.28 1.83 1.29 3.61s-1.83 4-4.59 3.8a36.33 36.33 0 00-9.86.9c-1.06.24-2.14.34-2 1.67.18 1.51-.91 3.25 1.13 4.44 2.76 1.61 5.68.91 8.51.9a7.78 7.78 0 015.45 1.9c.84.73 2.31 1.42 1.62 2.71-.86 1.6-.63 3.93-3.26 4.47-3.66.76-7.33 1.45-11 2-1.89.27-2.41 1.5-1.7 3.26.91 2.29 3.08 2.62 4.82 2.59 2.57 0 4.86.89 7.29 1.27 2.71.43 4.32 4.36 2.77 6.51a7 7 0 01-5.77 3.32h-8c-.82 0-2.07.07-1.64 1.21 1 2.58 1 5.45 2.45 7.88a33.11 33.11 0 006.64 8c4.9 4.33 10.56 6.07 16.19 7z"/>
            <path class="cls-1" d="M134.21 252.57a32 32 0 01-13-4.66c-5.13-3.43-9.22-7.65-11.38-13.56a21.27 21.27 0 01.19-16.21c3.06-7.41 8.71-12 15.58-15.06a26.75 26.75 0 0110.87-2.6c2.65 0 3.44 1 3.85 3.64.49 3.15 0 6.25 0 9.38-.11 7.08-.28 14.16 0 21.23.24 5.28-.94 10.38-1.15 15.59-.17 3-2.75 1.88-4.96 2.25zM138 209.5v-5.24c0-.85-.23-1.54-1.27-1.39a41.36 41.36 0 00-12.79 4.06 23.14 23.14 0 00-11.43 12.89 18.24 18.24 0 00.67 15.07 24.4 24.4 0 0012 11.85 50.92 50.92 0 009.27 3c2.89.72 2.89.93 2.91-2 .15-12.77-.27-25.51.67-38.28z"/>
            <path class="cls-4" d="M128.21 375.46c-.28-3.24 2.12-5.22 3.29-7.71.28-.6 1.26-.42 1.88-.29a34.23 34.23 0 0114.69 6.43c2 1.57 1.9 5.6.42 7.72-2.81 4-6.34 3.44-10.76 1.38-2.33-1.08-4.84-1.77-7-3.35-1.73-1.18-2.79-2.18-2.52-4.18zm14.79 5.78a2.76 2.76 0 003.56-1.62 2.86 2.86 0 00.16-.64c.35-1.56-.68-2.77-2.16-3.85-2.4-1.74-5.22-2.37-7.79-3.6-3.74-1.78-4.37-1.28-5.72 2.85a.62.62 0 01-.13.47c-1.06 1.34 0 2.2 1 2.28 1.45.12 2.38 1.11 3.59 1.5 2.48.83 4.44 3 7.54 2.64z"/>
            <path class="cls-1" d="M121.09 37.89c-2.73 0-3.55-2.27-4.62-3.89a9.64 9.64 0 01-1.09-3.2c-.31-1.44-.75-3.13 1.88-3.39a9.5 9.5 0 004.44-2c2.27-1.75 5.1-1.7 7.58-2.74 1.87-.78 5.33.66 5.89 2.09 1.42 3.64.54 6-1.84 8-3.27 2.65-7.25 3.38-11 4.87a7.6 7.6 0 01-1.24.26zm-1.13-5c.17.31-.84 2.53.38 2.25 4.41-1 9-2 12.49-5.2.69-.62 1.87-1.33.86-2.41s-1.3-2.61-3.43-2.06c-2.78.71-5.34 2-8.08 2.71-2.17.55-2.94 1.87-2.22 4.67z"/>
            <path class="cls-4" d="M82.78 342.33c1.84-.49 2 1 1.38 2.69-.93 2.34-1.51 4.78-2.6 7.1s-2.49 1.88-3.83.92a18.5 18.5 0 01-4-4c-1.28-1.73.27-3.18 1.4-4a14.37 14.37 0 017.65-2.71zm-2.82 3c-2-.1-3.06.65-3.09 2.52a2.13 2.13 0 001.78 2.43 2.22 2.22 0 00.68 0c1.94-.08 2.36-1.39 2.48-3s-.52-2.14-1.85-1.9zM38.59 298.36c1 3.22-1.1 5.37-3.48 6.62a6.53 6.53 0 01-6.84-.51c-3.3-2.34-6-10.07-5-13.93a2.76 2.76 0 011.38-1.7c2.76-1.52 5.55-2.95 8.88-2.39.65.1 1.63-.11 1.76.61.71 3.87 4.12 6.94 3.3 11.3zm-3.63.08a11.25 11.25 0 000-2.84c-.49-1.63-1.47-3.13-1.83-4.77-.38-1.82-1.67-1.68-2.59-1.23a8.27 8.27 0 01-4.06.84c-.94 0-1.25.15-.9 1.31a27.78 27.78 0 011.62 6.41c.19 3.12 2.17 4.24 5.35 4.3 3.57.06 2.13-2.46 2.41-4zM53.21 290.51c-1.16 3.4-5.09 4.12-7.13 1.12-.87-1.39-2.77-2.05-2.87-4.17-.16-3.93 2.61-6.82 7.08-7 1.43-.06 3-.53 4.29.65 3.93 3.7 3.7 4 0 8.26-.07-2-1.36-3.67-1.39-5.71a1.1 1.1 0 00-1.06-1.13 1.13 1.13 0 00-.54.13c-1.48.66-3 1.2-4.45 1.91-.85.43-1.41.83-.9 2.25.91 2.59 2.14 4 5 3.47a8.21 8.21 0 011.97.22zM362.21 305.46a44.82 44.82 0 01-9.34-2.33c-2.09-.83-4.31-.6-6.39-1.56a25.92 25.92 0 01-6.5-3.88c-3-2.68-1.81-7.74 1.51-10.13 2.81-2 5.22-.28 7.65.3 3.54.85 7.06 1.81 10.59 2.72s7.56 1 9.32 5.36c1.87 4.64 0 9.6-6.84 9.52zm.51-3.15h1c1.74.18 3.07-.3 3-2.31-.07-1.76 1.12-3.81-2-4.82-1.85-.61-3.77-.79-5.62-1.44-4.66-1.63-9.26-3.64-14.38-3.61-2.79 0-3.84.71-3.82 3.22s2.92 4.83 6 4.94c2.09.07 3.93 1 5.87 1.55 3.33.88 6.49 2.23 9.94 2.44z"/>
            <path class="cls-1" d="M258.15 48.72a11.11 11.11 0 011.18-4.8c2.11-5.27 4.37-10.48 6.63-15.69a7.26 7.26 0 016.63-3.69c1.89.22 5.05 3.05 5.49 5 .41 1.74-.67 3.24-1.21 4.68-2.11 5.66-4.58 11.18-7 16.73-1.12 2.57-4.48 4.4-6.9 3.91a6.65 6.65 0 01-4.82-6.14zm16-18.41c.18-.83.19-1.8-.7-2.14s-2.13-.73-3.07.1a11.61 11.61 0 00-2.17 2.62c-1.22 2-1.73 4.19-2.67 6.23a78.9 78.9 0 00-4.26 11c-.7 2.37.54 3.81 3 3.86 2 0 2.72-1.36 3.53-2.69 1.64-2.69 2.16-5.89 3.65-8.62 1.75-3.3 3-6.57 2.75-10.36zM375.86 121.46c3.14 0 5.25 1.25 5.82 3.21 1.07 3.63.37 6.28-2.65 8-5.5 3.08-11 6.05-17.12 8-3.22 1-5.71 1.24-8-1.42a5.8 5.8 0 01.94-8.16 5.44 5.44 0 01.55-.39 116.21 116.21 0 0119-9 4.51 4.51 0 011.46-.24zm3.32 5.25c-.17-.94.51-2.49-1.13-2.53a11.5 11.5 0 00-4.57.79 94.9 94.9 0 00-10 4.71c-2.48 1.38-5.36 2.1-7.38 4.25-.4.41-1.1.64-.68 1.6 1.75 4 2.3 4.21 6.19 2.34l.22-.11c4.82-2.18 9.7-4.23 14.42-6.59 1.62-.71 3.42-2 3-4.42z"/>
            <path class="cls-3" d="M197.63 288.46c-8.5 0-17-.09-25.49.07a5.49 5.49 0 01-4.47-2.22c-1.25-1.43-.2-2.93 1-3.55a8.65 8.65 0 014.42-1.35c4.5.14 9 0 13.49.09a9.27 9.27 0 004.77-1.19c1.76-1 3.13-2.34 2.93-4.76s0-4.83 0-7.25c0-4.3-1-5.89-5.21-6.7-2.71-.52-5-2.14-7.63-2.59-3.78-.65-6.6-3.11-9.8-4.8a23.32 23.32 0 01-5.27-4.38 45.65 45.65 0 01-10.64-16c-1.32-3.53-2.65-7.35-2.49-11.42.21-5.41 0-10.83 0-16.24a3.49 3.49 0 012.16-3.56 2.8 2.8 0 013.31 1.12 3.18 3.18 0 01.53 2.12c0 2.25.11 4.51 0 6.75-.33 6 1.24 11.54 3.15 17.08a35.34 35.34 0 008.74 14 38.48 38.48 0 0017 9.93c5.94 1.58 12 1.19 17.76.57 5.37-.57 10.23-3.55 14.85-6.75 5.32-3.69 8.47-8.92 11.86-14.06 1.67-2.52 1.7-5.59 2.6-8.38 1.53-4.73.66-9.68 1.16-14.5.25-2.41.18-5.19 2.27-7.12 1.56-1.44 2.38-1 3.76.47 2 2.17 1.75 4.63 1.88 7.18a62 62 0 01-1.1 14.07c-.9 5.07-2.29 10.13-5.16 14.38-1.74 2.59-3.11 5.63-5.91 7.52-1.72 1.15-2.81 3-4.36 4.46a37.79 37.79 0 01-13.7 8c-3 1-6 2-9 3.09-1.38.5-2.62 1.43-2.72 2.95-.26 4-.92 8.1 0 12.11a3.63 3.63 0 003.2 3c6 1.41 12.08.57 18.1.84 1.6.08 2.86 1.23 4.52 1.18.76 0 .38 3.45-.65 4.35a5.87 5.87 0 01-4.07 1.52c-8.63-.03-17.21-.03-25.79-.03z"/>
            <path class="cls-3" d="M197.76 242.38c-5.63-.88-11.29-2.62-16.14-7a33.11 33.11 0 01-6.64-8c-1.44-2.43-1.47-5.3-2.45-7.88-.43-1.14.82-1.2 1.64-1.21h8a7 7 0 005.78-3.32c1.55-2.15-.07-6.08-2.77-6.51-2.43-.38-4.72-1.32-7.29-1.27-1.74 0-3.91-.3-4.82-2.59-.71-1.76-.19-3 1.7-3.26 3.7-.53 7.36-1.22 11-2 2.63-.54 2.4-2.87 3.26-4.47.69-1.29-.78-2-1.62-2.71a7.78 7.78 0 00-5.45-1.9c-2.83 0-5.75.71-8.51-.9-2-1.19-.95-2.93-1.13-4.44-.16-1.33.92-1.43 2-1.67a36.33 36.33 0 019.86-.9c2.76.15 3.55-1.9 4.59-3.8s-.52-2.62-1.29-3.61a6.12 6.12 0 00-5.59-2.61c-2.32.2-4.4-1.41-6.81-1.07-.7.1-.73-.71-.82-1.29-.55-3.59.89-6.58 2.66-9.53 3.52-5.83 9.16-8.79 15.24-10.85 8.23-2.77 15.44-.18 21.79 5.29a41.52 41.52 0 017.5 8.59 8.27 8.27 0 011 6.4c-.53 2-3.16 2.21-5.18 2.49-2.25.31-4.62-.64-6.79.8a5.43 5.43 0 00-2.13 6c.72 1.92 1.8 3.36 4.38 3.22 2.88-.15 5.78.28 8.67.41 1.25 0 1.71.64 1.82 1.86.41 4.58-.51 5.62-5.15 5.65h-4.49c-3.78 0-5.91 2.62-5.36 6.43a2.83 2.83 0 002.11 2.21c1.81.68 3.58 1.65 5.68 1.37a15.48 15.48 0 014.45.34c2.35.41 3 1.69 2.75 3.84s-1.7 3-3.65 2.74c-3.13-.42-5.91 1.26-9 1.18-1.89 0-3.07 4.1-2.11 6.61.85 2.18 2.06 3.57 4.78 3.27a64.37 64.37 0 017.48-.05c2.29 0 3.13 1 2.38 3.08-1.27 3.49-1.92 7.11-4.51 10.21a25 25 0 01-7.88 6.47c-2.68 1.38-5.26 3.24-8.48 3.74-1.32.26-2.62.42-4.46.64z"/>
          </g>
        </g>
      </g>
    </g>
  </g>
</svg>
