<svg id="Layer_1" data-name="Layer 1" 
    xmlns="http://www.w3.org/2000/svg" viewBox="0 0 220 220">
    <path fill="currentColor" d="M30,120q35-70,70,0t70,0a70,70,0,0,1-140,0">
        <animate attributeName="d" repeatCount="indefinite" dur="1s" calcMode="spline" keyTimes="0;0.5;1" values="
        M30,120q35-70,70,0t70,0a70,70,0,0,1-140,0;
        M30,120q35-0,70,0t70,0a70,70,0,0,1-140,0;
        M30,120q35-70,70,0t70,0a70,70,0,0,1-140,0" keySplines="0.5 0 0.5 1;0.5 0 0.5 1"></animate>

    </path>
    <path fill="currentColor" d="M50.07,53.2V161.8a12.06,12.06,0,0,0,12.07,12.07h72.4A12.06,12.06,0,0,0,146.6,161.8V53.2Zm120.66,0H182.8A36.2,36.2,0,0,1,219,89.4v36.2a36.2,36.2,0,0,1-36.2,36.2H170.73A36.19,36.19,0,0,1,134.54,198H62.14a36.2,36.2,0,0,1-36.2-36.2V53.2A24.13,24.13,0,0,1,50.07,29.07H146.6A24.13,24.13,0,0,1,170.73,53.2Zm0,24.14v60.33H182.8a12.06,12.06,0,0,0,12.07-12.07V89.4A12.06,12.06,0,0,0,182.8,77.34Z"/>

</svg>